<svg xmlns="http://www.w3.org/2000/svg" width="186.619" height="256" viewBox="0 0 186.619 256">
  <path id="lock" d="M153.954,3096.983v-20.147a8.49,8.49,0,1,0-16.965,0v20.147a17.769,17.769,0,0,0-8.483,15.246c0,9.759,7.6,17.689,16.965,17.689s16.965-7.931,16.965-17.689a17.769,17.769,0,0,0-8.483-15.246m67.861,59.474a8.681,8.681,0,0,1-8.483,8.847H77.61a8.684,8.684,0,0,1-8.483-8.847V3050.294a8.686,8.686,0,0,1,8.483-8.847H213.333a8.683,8.683,0,0,1,8.483,8.847ZM94.575,2997.774c0-29.276,22.83-53.087,50.9-53.087s50.9,23.812,50.9,53.087v25.987H94.575Zm118.757,25.987v-25.987c0-39.026-30.441-70.774-67.861-70.774s-67.861,31.748-67.861,70.774v25.987c-14.025,0-25.448,11.908-25.448,26.537v106.16c0,14.636,11.423,26.542,25.448,26.542H213.333c14.03,0,25.448-11.906,25.448-26.542V3050.3c0-14.628-11.418-26.537-25.448-26.537" transform="translate(-52.162 -2927)" fill="red"/>
</svg>
