<svg xmlns="http://www.w3.org/2000/svg" width="186.618" height="256" viewBox="0 0 186.618 256">
  <path id="unlock" d="M-3766.83,12379h-135.723c-14.032,0-25.447-11.906-25.447-26.541V12246.3c0-14.633,11.416-26.537,25.447-26.537v-25.984c0-39.025,30.443-70.774,67.863-70.774a65.165,65.165,0,0,1,18.722,2.739,66.163,66.163,0,0,1,16.727,7.705,70.131,70.131,0,0,1,24.529,27.243h-20.2a49.93,49.93,0,0,0-39.776-20c-28.065,0-50.9,23.815-50.9,53.088v25.984H-3783.8v-.071h16.966v.071c14.031,0,25.447,11.905,25.447,26.537v106.163C-3741.383,12367.094-3752.8,12379-3766.83,12379Zm-135.723-141.555a8.68,8.68,0,0,0-8.481,8.848v106.166a8.679,8.679,0,0,0,8.481,8.845h135.723a8.68,8.68,0,0,0,8.484-8.845v-106.166a8.681,8.681,0,0,0-8.484-8.848Zm67.863,88.473c-9.355,0-16.966-7.936-16.966-17.689a18.031,18.031,0,0,1,2.346-8.922,17.6,17.6,0,0,1,6.135-6.322v-20.147a8.679,8.679,0,0,1,8.484-8.842,8.256,8.256,0,0,1,6,2.588,8.982,8.982,0,0,1,2.484,6.254v20.147a17.6,17.6,0,0,1,6.137,6.322,18.027,18.027,0,0,1,2.348,8.922C-3817.724,12317.982-3825.335,12325.918-3834.69,12325.918Z" transform="translate(3928 -12123)" fill="#1ccb94"/>
</svg>
