<svg id="alliance-gdp" xmlns="http://www.w3.org/2000/svg" width="19.453" height="14.499" viewBox="0 0 19.453 14.499">
  <path id="Path_91" data-name="Path 91" d="M2.208,7.954H2.45L4.625,17.5H16.707l2.175-9.666c.121,0,.242.121.362.121a1.142,1.142,0,0,0,1.208-1.208,1.208,1.208,0,1,0-2.417,0,.923.923,0,0,0,.242.6l-4.471,3.262L11.391,5.3a1.532,1.532,0,0,0,.483-1.087A1.142,1.142,0,0,0,10.666,3,1.142,1.142,0,0,0,9.458,4.208a1.269,1.269,0,0,0,.6,1.087L7.645,10.733,3.175,7.471a1.717,1.717,0,0,0,.242-.725A1.142,1.142,0,0,0,2.208,5.537,1.142,1.142,0,0,0,1,6.746,1.211,1.211,0,0,0,2.208,7.954Z" transform="translate(-1 -3)" fill="#ebe65e"/>
</svg>
