<svg xmlns="http://www.w3.org/2000/svg" width="24.661" height="24.661" viewBox="0 0 24.661 24.661">
  <path id="alliance-actions" d="M19770.537-781.417a5.211,5.211,0,0,1-3.943-2.307,3.682,3.682,0,0,1-1.049-1.47c-.879-1.369-1.633-2.84-2.35-3.919a1.216,1.216,0,0,1-.135-1.046,1.05,1.05,0,0,1,.639-.7,1.243,1.243,0,0,1,.854.035,2.349,2.349,0,0,1,.738.514c.354.336.768.832,1.2,1.316v-7.657a1.5,1.5,0,0,1,1.531-1.464,1.5,1.5,0,0,1,1.523,1.464v2.854a1.522,1.522,0,0,1,1.027-.384,1.5,1.5,0,0,1,1.441,1.05,1.26,1.26,0,0,1,.928-.44,1.347,1.347,0,0,1,1.264,1.089,1.152,1.152,0,0,1,.838-.383,1.377,1.377,0,0,1,1.254,1.473v5.33a4.616,4.616,0,0,1-4.686,4.641Zm-.715-17.288a.253.253,0,0,1-.014-.357l1.645-1.813a.268.268,0,0,1,.146-.078.248.248,0,0,1,.26.135.254.254,0,0,1-.045.292l-1.643,1.809a.255.255,0,0,1-.184.08A.236.236,0,0,1,19769.822-798.705Zm-4.219-.013-1.658-1.809a.258.258,0,0,1-.057-.257.259.259,0,0,1,.2-.17.247.247,0,0,1,.223.078l1.658,1.813a.26.26,0,0,1-.012.357.247.247,0,0,1-.168.067A.241.241,0,0,1,19765.6-798.718Zm2.035-1.464v-2.558a.252.252,0,0,1,.215-.257.243.243,0,0,1,.2.065.241.241,0,0,1,.078.192v2.558a.245.245,0,0,1-.246.248A.244.244,0,0,1,19767.639-800.182Z" transform="translate(-14527.096 -13406.744) rotate(45)" fill="#4185ca"/>
</svg>
