<?xml version="1.0" encoding="utf-8"?>
<!-- Generator: Adobe Illustrator 23.0.1, SVG Export Plug-In . SVG Version: 6.00 Build 0)  -->
<svg version="1.1" id="Layer_1" xmlns="http://www.w3.org/2000/svg" xmlns:xlink="http://www.w3.org/1999/xlink" x="0px" y="0px"
	 viewBox="0 0 24 24" style="enable-background:new 0 0 24 24;" xml:space="preserve">
<style type="text/css">
	.st0{fill:#665EEB;}
</style>
<path class="st0" d="M9,20h6v2H9V20z M16.9,13.7c1-1.2,2.1-2.5,2.1-4.7c0-3.9-3.1-7-7-7S5,5.1,5,9c0,2.3,1.1,3.5,2.1,4.7
	c0.4,0.4,0.7,0.9,1.1,1.3c0.1,0.2,0.4,1,0.6,1.9H8v2h1.2h5.7H16v-2h-0.8c0.2-0.9,0.4-1.7,0.6-1.9C16.2,14.6,16.5,14.1,16.9,13.7z"/>
</svg>
