<svg id="Group_365" data-name="Group 365" xmlns="http://www.w3.org/2000/svg" width="50" height="37.267" viewBox="0 0 50 37.267">
  <path id="Path_91" data-name="Path 91" d="M4.106,15.733h.621l5.59,24.534H41.373l5.59-24.845c.311,0,.621.311.932.311A2.934,2.934,0,0,0,51,12.627a3.106,3.106,0,1,0-6.211,0,2.372,2.372,0,0,0,.621,1.553L33.919,22.565,27.708,8.9a3.936,3.936,0,0,0,1.242-2.8A2.934,2.934,0,0,0,25.845,3a2.934,2.934,0,0,0-3.106,3.106,3.261,3.261,0,0,0,1.553,2.8L18.081,22.876,6.59,14.491a4.414,4.414,0,0,0,.621-1.863A2.934,2.934,0,0,0,4.106,9.522,2.934,2.934,0,0,0,1,12.627,3.112,3.112,0,0,0,4.106,15.733Z" transform="translate(-1 -3)" fill="#ebe65e"/>
</svg>
