<?xml version="1.0" encoding="utf-8"?>
<!-- Generator: Adobe Illustrator 23.0.1, SVG Export Plug-In . SVG Version: 6.00 Build 0)  -->
<svg version="1.1" id="Layer_1" xmlns="http://www.w3.org/2000/svg" xmlns:xlink="http://www.w3.org/1999/xlink" x="0px" y="0px"
	 viewBox="0 0 32 32" style="enable-background:new 0 0 32 32;" xml:space="preserve">
<style type="text/css">
	.st0{fill:#00B143;}
	.st1{fill:#F77A21;}
	.st2{fill:#7E25AB;}
	.st3{fill:#002162;}
	.st4{font-family:'SegoeUI';}
	.st5{font-size:19.1997px;}
	.st6{fill:none;stroke:#002162;stroke-width:1.5;stroke-miterlimit:10;}
</style>
<g id="Group_1" transform="translate(-3 -2)">
	<g id="Group" transform="translate(3 2)">
		<g id="Goalore_Copy">
			<path id="Combined_Shape" class="st0" d="M16,32L16,32l2.9-4.8l5.3,2.4v-5.5l5.8-0.5l-2.7-4.7L32,16l-4.7-3.3l2.4-4.9l-5.5-0.2
				l-0.4-5.5l-4.9,2.2L16,0l-3.1,4.3l-5-2v5.4H2.3c0.1-0.2,0.3-0.4,0.4-0.6c1.7-2.6,4.2-4.6,7-5.8c1-0.4,2-0.7,3-0.9
				C13.8,0.1,14.9,0,16,0l0,0c1.1,0,2.2,0.1,3.2,0.3c2,0.4,4,1.2,5.7,2.4c2.6,1.7,4.6,4.2,5.8,7c0.4,1,0.7,2,0.9,3
				c0.4,2.1,0.4,4.3,0,6.4c-0.4,2-1.2,4-2.4,5.7c-1.7,2.6-4.2,4.6-7,5.8c-1,0.4-2,0.7-3,0.9C18.2,31.9,17.1,32,16,32z M16,32L16,32
				c-1.1,0-2.2-0.1-3.2-0.3c-1.7-0.4-3.4-1-4.9-1.9l5.1-2.5L16,32L16,32z M7.8,29.7L7.8,29.7c-0.3-0.2-0.5-0.3-0.8-0.5
				c-1.7-1.2-3.2-2.6-4.3-4.3c-0.3-0.4-0.5-0.8-0.7-1.1l5.7,0.4L7.8,29.7L7.8,29.7z M2,23.8L2,23.8c-1.3-2.3-2-5-2-7.6l4.6,2.8
				L2,23.8z M0,16.2L0,16.2c0-0.1,0-0.1,0-0.2c0-1.1,0.1-2.2,0.3-3.2c0.4-1.7,1-3.4,1.9-4.9l2.4,4.8L0,16.2L0,16.2z"/>
			<path id="Combined_Shape-2" class="st1" d="M16,32L16,32l2.3-3.8c0.2,0.4,0.3,0.8,0.4,1.1c0.1,0.3,0.1,0.6,0.1,0.9
				c0,0.7-0.5,1.3-1.1,1.5C17.1,31.9,16.6,32,16,32z M16,32L16,32c-1.1,0-2.2-0.1-3.2-0.3c-2-0.4-4-1.2-5.7-2.4
				c-1.7-1.2-3.2-2.6-4.3-4.3c-0.3-0.4-0.5-0.8-0.7-1.1l5.7,0.4l0.1,5.6l5.1-2.5L16,32L16,32z M2,23.8L2,23.8c-1.3-2.3-2-5-2-7.6
				l4.8,2.8L2,23.8L2,23.8z M0,16.2L0,16.2c0-0.1,0-0.1,0-0.2c0-1.1,0.1-2.2,0.3-3.2c0.4-2,1.2-4,2.4-5.7c1.7-2.6,4.2-4.6,7-5.8
				c1-0.4,2-0.7,3-0.9C13.8,0.1,14.9,0,16,0l-3.1,4.3l-5-2v5.4L2.3,7.7l2.5,4.9L0,16.2L0,16.2z"/>
			<path id="Combined_Shape-3" class="st2" d="M15.9,32c-1.5,0-2.9-0.2-4.3-0.6c-1.4-0.4-2.7-0.9-3.9-1.6c-1.2-0.7-2.3-1.6-3.2-2.6
				c-1-1-1.8-2.2-2.4-3.4L7.8,24l0,5.7l5.1-2.5l3,4.7l3-4.8l5.3,2.4l0-5.5l5.8-0.5l0,0l0,0l0,0c-1.4,2.5-3.4,4.6-5.8,6.1
				c-1.2,0.7-2.6,1.3-3.9,1.7C18.8,31.8,17.4,32,15.9,32z"/>
		</g>
		<text transform="matrix(1 0 0 1 8.918 22.6553)" class="st3 st4 st5">G</text>
		<text transform="matrix(1 0 0 1 8.918 22.6553)" class="st6 st4 st5">G</text>
	</g>
</g>
</svg>
