<svg xmlns="http://www.w3.org/2000/svg" xmlns:xlink="http://www.w3.org/1999/xlink" width="106" height="35" viewBox="0 0 106 35">
  <defs>
    <clipPath id="clip-path">
      <path id="Path_76" data-name="Path 76" d="M17.5-35A17.5,17.5,0,0,1,35-17.5,17.5,17.5,0,0,1,17.5,0h-.021l3.23-5.2,5.8,2.639v-6.03l6.341-.519L29.87-14.277,34.958-17.5,29.87-21.138,32.5-26.447l-5.989-.186-.4-6.058-5.4,2.378L17.5-35ZM14.158-5.2,17.479,0H17.5A17.419,17.419,0,0,1,8.59-2.435ZM2.215-8.971l6.2.383.123,6.123A17.586,17.586,0,0,1,2.215-8.971ZM0-17.323l5.041,3.047-2.828,5.3A17.416,17.416,0,0,1,0-17.323ZM2.45-26.435l2.592,5.3L0-17.325q0-.087,0-.175A17.419,17.419,0,0,1,2.45-26.435ZM17.5-35l-3.342,4.687L8.636-32.521v5.888H2.569A17.489,17.489,0,0,1,17.5-35Z" fill="none" clip-rule="evenodd"/>
    </clipPath>
    <clipPath id="clip-path-2">
      <path id="Path_75" data-name="Path 75" d="M-133,148H123V-108H-133Z" fill="none"/>
    </clipPath>
    <clipPath id="clip-path-3">
      <path id="Path_79" data-name="Path 79" d="M17.5,0h-.021l2.568-4.132C21.066-1.66,20.655,0,17.5,0ZM2.215-8.971l6.2.383.156,6.127L14.158-5.2,17.479,0H17.5A17.5,17.5,0,0,1,2.215-8.971ZM0-17.323l5.22,3.047-3.008,5.3A17.416,17.416,0,0,1,0-17.323ZM17.5-35l-3.342,4.687L8.636-32.521v5.888l-6.1.093,2.714,5.4L0-17.325q0-.087,0-.175A17.5,17.5,0,0,1,17.5-35Z" fill="none" clip-rule="evenodd"/>
    </clipPath>
    <clipPath id="clip-path-5">
      <path id="Path_82" data-name="Path 82" d="M8.573-8.715v6.254L14.158-5.2,17.479,0l3.23-5.2,5.8,2.639v-6.03l6.341-.519a.071.071,0,0,1-.013.041A17.248,17.248,0,0,1,17.37,0,16.986,16.986,0,0,1,2.378-8.655l-.167-.317Z" fill="none" clip-rule="evenodd"/>
    </clipPath>
  </defs>
  <g id="Group_516" data-name="Group 516" transform="translate(12886 -2421)">
    <g id="Group_355" data-name="Group 355" transform="translate(-12886 2456)">
      <g id="Group_350" data-name="Group 350" clip-path="url(#clip-path)">
        <g id="Group_349" data-name="Group 349" clip-path="url(#clip-path-2)">
          <path id="Path_74" data-name="Path 74" d="M-5-40H40V5H-5Z" fill="#00b043"/>
        </g>
      </g>
      <g id="Group_352" data-name="Group 352" clip-path="url(#clip-path-3)">
        <g id="Group_351" data-name="Group 351" clip-path="url(#clip-path-2)">
          <path id="Path_77" data-name="Path 77" d="M-5-40H25.543V5H-5Z" fill="#f77a21"/>
        </g>
      </g>
      <g id="Group_354" data-name="Group 354" clip-path="url(#clip-path-5)">
        <g id="Group_353" data-name="Group 353" clip-path="url(#clip-path-2)">
          <path id="Path_80" data-name="Path 80" d="M-2.688-14.728l40.627.709L37.6,5.351-3.026,4.642Z" fill="#7d24aa"/>
        </g>
      </g>
    </g>
    <text id="G" transform="translate(-12877 2425)" fill="#001e62" font-size="24" font-family="Roboto-Medium, Roboto" font-weight="500"><tspan x="0" y="23">G</tspan></text>
    <text id="Goalore" transform="translate(-12845 2427)" fill="#001e62" font-size="18" font-family="Roboto-Medium, Roboto" font-weight="500"><tspan x="0" y="17">Goalore</tspan></text>
  </g>
</svg>
