<svg xmlns="http://www.w3.org/2000/svg" xmlns:xlink="http://www.w3.org/1999/xlink" width="256" height="256" viewBox="0 0 256 256">
  <defs>
    <clipPath id="clip-Artboard_1">
      <rect width="256" height="256"/>
    </clipPath>
  </defs>
  <g id="Artboard_1" data-name="Artboard – 1" clip-path="url(#clip-Artboard_1)">
    <rect width="256" height="256" fill="#fff"/>
    <g id="gearIcon" transform="translate(-192.783 -250)">
      <path id="Path_172" data-name="Path 172" d="M-19812.826-10324.811l41.678-18.783v-28.358l13.969-16.931,26.25-4.959,7.344-39.725-24.562-15.214-4.3-26.641,14.912-20.15-27.832-37.431-28.861,12.116-15.2-9.114-15.1-27.453h-39.807l-12.775,27.453-19.895,9.114-24.664-9.114-25.51,34.429,11.582,20.15-3.271,26.641-25.344,15.214,12.012,39.725,26.684,4.959,12.982,19.954v23.751l36.924,20.367,20.572-18.783,23.145,1.893Z" transform="translate(20164.424 10818.941)" fill="#c1c1c1"/>
      <path id="Path_171" data-name="Path 171" d="M159.671,326.689l-45.1-21.5.34-29.242-9.587-13.217-30.916-5.616L64.2,208.273l25.5-15.827,3.318-18.55L76.878,148.143l32.93-40.956,30.547,8.934L154,108.973,165.116,82H217.3l11.09,26.973,13.643,7.119,30.576-8.906,32.93,40.956L289.4,173.9l3.319,18.55,25.555,15.77L308.1,257.058l-30.916,5.616-9.587,13.217.34,29.271-45.1,21.5L201.081,308H181.4Zm18.55-27.172H204.2l19.939,17.131,35.17-16.791-.283-26.662L272.3,254.93l28.647-5.219,7.8-37.383-23.74-14.635-4.566-25.527L295.1,148.739,269.55,116.915,241.158,125.2l-19.429-10.126-10.1-24.562H170.789L160.663,115.1l-19.429,10.154-28.392-8.311-25.555,31.8,14.664,23.428-4.566,25.527L73.7,212.386l7.8,37.383,28.647,5.219,13.274,18.266-.284,26.633,35.17,16.791Zm12.99-49.153a46.431,46.431,0,1,1,46.431-46.431A46.47,46.47,0,0,1,191.21,250.364Zm0-84.352a37.922,37.922,0,1,0,37.922,37.922A37.973,37.973,0,0,0,191.21,166.012Z" transform="translate(130 174)" fill="#989898"/>
    </g>
    <g id="Ellipse_122" data-name="Ellipse 122" transform="translate(66.009 71.393)" fill="#fff" stroke="#989898" stroke-width="10">
      <circle cx="60.979" cy="60.979" r="60.979" stroke="none"/>
      <circle cx="60.979" cy="60.979" r="55.979" fill="none"/>
    </g>
  </g>
</svg>
