<svg xmlns="http://www.w3.org/2000/svg" width="11.665" height="13.913" viewBox="0 0 11.665 13.913">
  <path id="goal-attachments" d="M32.654,3.623A2.7,2.7,0,0,0,31.32,2,2.8,2.8,0,0,0,27.5,3.055l-4.089,7.666a1.634,1.634,0,0,0-.1,1.292,1.771,1.771,0,0,0,.852.994l.071.043a1.7,1.7,0,0,0,1.263.128,1.631,1.631,0,0,0,.98-.809L29.063,7.5a.591.591,0,0,0,.043-.44.561.561,0,0,0-.284-.341.591.591,0,0,0-.44-.043.561.561,0,0,0-.341.284l-2.584,4.869a.524.524,0,0,1-.3.256.493.493,0,0,1-.4-.043L24.69,12a.572.572,0,0,1-.3-.355.452.452,0,0,1,.028-.383l4.089-7.666a1.663,1.663,0,0,1,2.271-.582,1.531,1.531,0,0,1,.767.937,1.556,1.556,0,0,1-.114,1.207l-4.145,7.78a2.777,2.777,0,0,1-1.647,1.349,2.747,2.747,0,0,1-2.115-.213,2.41,2.41,0,0,1-1.192-1.547,2.943,2.943,0,0,1,.256-2.1l3.563-6.431a.57.57,0,0,0-.227-.781.586.586,0,0,0-.781.227L21.6,9.9a4.016,4.016,0,0,0-.355,2.939A3.5,3.5,0,0,0,23,15.094a3.905,3.905,0,0,0,3,.3,3.818,3.818,0,0,0,2.314-1.9L32.441,5.7A2.7,2.7,0,0,0,32.654,3.623Z" transform="translate(-21.105 -1.649)"/>
</svg>
