<svg xmlns="http://www.w3.org/2000/svg" width="34.108" height="21.042" viewBox="0 0 34.108 21.042">
  <g id="Goals:_4" data-name="Goals: 4" transform="translate(-2.482 -20.684)">
    <path id="Path_130" data-name="Path 130" d="M26.9,56.386a1.23,1.23,0,0,0-1.73.223l-1.05,1.362v0h0l-.006.008h0l-.185.238-.685.888a1.352,1.352,0,0,0,.228,1.876,1.346,1.346,0,0,0,1.962-.313l1.735-2.633A1.234,1.234,0,0,0,26.9,56.386Z" transform="translate(-13.134 -22.722)" fill="#ef5a40"/>
    <path id="Path_131" data-name="Path 131" d="M39.85,69.195a1.145,1.145,0,0,0-1.632.351l-.337.53-.089.141a1.152,1.152,0,0,0,1.946,1.235l.433-.673A1.155,1.155,0,0,0,39.85,69.195Z" transform="translate(-22.521 -30.97)" fill="#ef5a40"/>
    <path id="Path_132" data-name="Path 132" d="M33.535,62.841a1.214,1.214,0,0,0-.833-.331,1.182,1.182,0,0,0-.133.008,1.216,1.216,0,0,0-.874.525L30.5,64.85A1.241,1.241,0,1,0,32.58,66.2l.209-.331,0-.008.1-.163.831-1.317A1.22,1.22,0,0,0,33.535,62.841Z" transform="translate(-17.822 -26.815)" fill="#ef5a40"/>
    <path id="Path_133" data-name="Path 133" d="M19.884,57.477l.171-.221a1.224,1.224,0,0,0-1.793-1.633l-.146.122-.717.811a1.265,1.265,0,1,0,1.946,1.616Z" transform="translate(-9.357 -22.215)" fill="#ef5a40"/>
    <path id="Path_134" data-name="Path 134" d="M34.612,38.554a56.524,56.524,0,0,0-8.926-6.131,1.48,1.48,0,0,0-1.088-.1l-.4.117a1.494,1.494,0,0,0-.768.525l-.623.816a3.255,3.255,0,0,1-1.979,1.23c-.32.061-.6.1-.837.13a1.875,1.875,0,0,1-.712-.056,1.08,1.08,0,0,1-.773-1.045,1.32,1.32,0,0,1,.382-.941l.371-.376a9.235,9.235,0,0,0,1.579-2.158l0,0a18.7,18.7,0,0,1-2.2-.316,2.146,2.146,0,0,1-.9-.415L15.994,28.48l-4.277,6.852,1.226.985a4.705,4.705,0,0,1,.954.932l.685.89.013-.01A1.577,1.577,0,0,1,17.187,39.3l.489-.634a1.584,1.584,0,0,1,2.634,1.749,1.573,1.573,0,0,1,1.828,2.326,1.478,1.478,0,0,1,.145-.047,1.514,1.514,0,0,1,1.627,2.234c.534.25,2.6,1.208,4.068,1.734a1.057,1.057,0,0,0,1.32-.553,1.046,1.046,0,0,0-.5-1.389l-.137-.068-1.7-.842v0l-1.472-.73a.18.18,0,0,1,.159-.322l3.178,1.576.131.065h0l.8.4a1.21,1.21,0,0,0,1.124-2.142l-4.149-2.3a.18.18,0,0,1,.174-.314l.314.174h0L32,42.863a1.137,1.137,0,0,0,1.134-1.97l-4.722-2.851a.18.18,0,0,1,.186-.307l2.973,1.795h0l1.647.972a1.243,1.243,0,0,0,1.547-.222,1.156,1.156,0,0,0,.3-.893A1.19,1.19,0,0,0,34.612,38.554Z" transform="translate(-5.921 -4.998)" fill="#ef5a40"/>
    <path id="Path_135" data-name="Path 135" d="M76.661,22.043a.442.442,0,0,0-.161.6l.282.5,4.42,7.505a.442.442,0,0,0,.628.143l1.981-1.331a.442.442,0,0,0,.139-.584L79.473,20.91a.442.442,0,0,0-.61-.164Z" transform="translate(-47.417)" fill="#ef5a40"/>
    <path id="Path_136" data-name="Path 136" d="M7.5,20.957,2.542,28.924a.4.4,0,0,0,.112.537l1.964,1.355A.4.4,0,0,0,5.18,30.7l4.981-7.98a.4.4,0,0,0-.114-.539L8.064,20.838A.4.4,0,0,0,7.5,20.957Z" transform="translate(0 -0.055)" fill="#ef5a40"/>
    <path id="Path_137" data-name="Path 137" d="M45.787,29.376a2.39,2.39,0,0,1-1.334.23c-.455-.065-1.329-.216-2.968-.571a8.12,8.12,0,0,0-1.576-.186,17.727,17.727,0,0,0-4.307.366,1.462,1.462,0,0,0-.289.114l-.528.271a1.6,1.6,0,0,0-.545.46l-.331.63a9.6,9.6,0,0,1-1.641,2.242l-.371.376a.957.957,0,0,0-.279.677.725.725,0,0,0,.511.712,1.531,1.531,0,0,0,.576.045c.226-.024.5-.066.808-.125a2.9,2.9,0,0,0,1.76-1.1l.623-.815a1.856,1.856,0,0,1,.954-.652l.4-.117a1.849,1.849,0,0,1,.513-.073,1.828,1.828,0,0,1,.838.2A56.9,56.9,0,0,1,47.554,38.2h0l.018.017c.08.066.159.13.239.2a10.156,10.156,0,0,0,2.05-1.7,3.019,3.019,0,0,1,.619-.5l1.32-1.028-3.982-6.763Z" transform="translate(-18.681 -4.961)" fill="#ef5a40"/>
  </g>
</svg>
