<svg xmlns="http://www.w3.org/2000/svg" width="186.619" height="256" viewBox="0 0 186.62 256"><title>Asset 4</title><g id="Layer_2" data-name="Layer 2"><g id="Layer_1-2" data-name="Layer 1"><path id="lock" d="M101.79,170V149.84a8.49,8.49,0,0,0-17-.72q0,.36,0,.72V170a17.79,17.79,0,0,0-8.49,15.25c0,9.76,7.6,17.69,17,17.69s17-7.93,17-17.69A17.76,17.76,0,0,0,101.79,170m67.86,59.48a8.67,8.67,0,0,1-8.48,8.84H25.45A8.69,8.69,0,0,1,17,229.46V123.29a8.69,8.69,0,0,1,8.49-8.84H161.17a8.67,8.67,0,0,1,8.48,8.84ZM42.41,70.77c0-29.27,22.83-53.08,50.9-53.08s50.9,23.81,50.9,53.08v26H42.41Zm118.76,26v-26c0-39-30.44-70.77-67.86-70.77S25.45,31.75,25.45,70.77v26C11.42,96.76,0,108.67,0,123.3V229.46C0,244.09,11.42,256,25.45,256H161.17c14,0,25.45-11.91,25.45-26.54V123.3c0-14.63-11.42-26.54-25.45-26.54"/></g></g></svg>