<?xml version="1.0" encoding="utf-8"?>
<!-- Generator: Adobe Illustrator 23.0.0, SVG Export Plug-In . SVG Version: 6.00 Build 0)  -->
<svg version="1.1" id="Layer_1" xmlns="http://www.w3.org/2000/svg" xmlns:xlink="http://www.w3.org/1999/xlink" x="0px" y="0px"
	 viewBox="0 0 188.7 72" style="enable-background:new 0 0 188.7 72;" xml:space="preserve">
<style type="text/css">
	.st0{fill:#FFFFFF;}
	.st1{fill-rule:evenodd;clip-rule:evenodd;fill:#00B143;}
	.st2{fill-rule:evenodd;clip-rule:evenodd;fill:#F77A21;}
	.st3{fill-rule:evenodd;clip-rule:evenodd;fill:#7E25AB;}
	.st4{fill:#002162;}
	.st5{font-family:'SegoeUI';}
	.st6{font-size:43.2px;}
	.st7{fill:none;stroke:#002162;}
	.st8{font-size:32px;}
</style>
<rect y="0" class="st0" width="188.7" height="72"/>
<title>Artboard</title>
<desc>Created with Sketch.</desc>
<g>
	<g id="Group" transform="translate(8.000000, 64.000000)">
		<g id="Goalore">
			<path id="Combined-Shape" class="st1" d="M28-64c19.9,0,36,16.1,36,36S47.9,8,28,8l0,0l6.6-10.7l11.9,5.4V-9.7l13-1.1l-6.1-10.6
				L63.9-28l-10.5-7.5l5.4-10.9l-12.3-0.4l-0.8-12.5l-11.1,4.9L28-64L28-64z M21.1-2.7L28,8l0,0C21.3,8,15,6.2,9.7,3L21.1-2.7z
				 M-3.4-10.5L9.3-9.7L9.6,2.9C4.1-0.3-0.4-4.9-3.4-10.5z M-8-27.6l10.4,6.3l-5.8,10.9C-6.3-15.6-7.9-21.4-8-27.6z M-3-46.4
				l5.3,10.9L-8-27.6c0-0.1,0-0.2,0-0.4C-8-34.7-6.2-41-3-46.4z M28-64l-6.9,9.6L9.8-58.9v12.1H-2.7C3.6-57.1,15-64,28-64z"/>
			<path class="st2" d="M28,8L28,8l5.2-8.5C35.3,4.6,34.5,8,28,8z M-3.4-10.5L9.3-9.7L9.6,2.9l11.5-5.6L28,8l0,0
				C14.5,8,2.7,0.6-3.4-10.5z M-8-27.6l10.7,6.3l-6.2,10.9C-6.3-15.6-7.9-21.4-8-27.6z M28-64l-6.9,9.6L9.8-58.9v12.1l-12.5,0.2
				l5.6,11.1L-8-27.6c0-0.1,0-0.2,0-0.4C-8-47.9,8.1-64,28-64z"/>
			<path class="st3" d="M9.6-9.9V3l11.5-5.6L28,8l6.6-10.7l11.9,5.4V-9.7l13-1.1l0,0v0.1C53.4,0.7,41.4,8.2,27.7,8
				C14.3,7.8,2.7,1.1-3.2-10l-0.2-0.4L9.6-9.9z"/>
		</g>
		<text transform="matrix(1 0 0 1 12.5696 -12.5)" class="st4 st5 st6">G</text>
		<text transform="matrix(1 0 0 1 12.5696 -12.5)" class="st7 st5 st6">G</text>
	</g>
	<text transform="matrix(1 0 0 1 79.7433 48)" class="st4 st5 st8">Goalore</text>
	<text transform="matrix(1 0 0 1 79.7433 48)" class="st7 st5 st8">Goalore</text>
</g>
</svg>
