<svg xmlns="http://www.w3.org/2000/svg" width="191" height="81.5" viewBox="0 0 191 81.5">
  <g id="Group_2" data-name="Group 2" transform="translate(-8 -64)">
    <g id="Group" transform="translate(8 64)">
      <g id="Goalore">
        <path id="Combined_Shape" data-name="Combined Shape" d="M36,72h-.043L42.6,61.308l11.934,5.429v-12.4L67.58,53.265,61.446,42.631,71.914,36,61.446,28.517,66.857,17.6l-12.321-.383L53.716,4.75,42.6,9.642,36,0A36.01,36.01,0,0,1,50.013,69.171,35.791,35.791,0,0,1,36,72Zm-.043,0h0a35.79,35.79,0,0,1-13.968-2.829,36.156,36.156,0,0,1-4.319-2.179l11.457-5.685L35.956,72Zm-18.39-5.067h0A36.265,36.265,0,0,1,4.555,53.545l12.759.788.253,12.6ZM4.552,53.541v0a36.234,36.234,0,0,1-1.723-3.526A35.779,35.779,0,0,1,0,36.361l10.369,6.27L4.553,53.539ZM0,36.359v0c0-.119,0-.238,0-.357A35.791,35.791,0,0,1,2.829,21.987a36.156,36.156,0,0,1,2.209-4.37l5.333,10.9L0,36.357ZM17.766,17.213H5.282A35.957,35.957,0,0,1,36,0L29.125,9.642,17.766,5.1V17.212Z" fill="#00b143"/>
        <path id="Combined_Shape-2" data-name="Combined Shape" d="M36,72h-.043l5.284-8.5c1.181,2.859,1.34,4.938.49,6.357S38.949,72,36,72Zm-.043,0h0a36.061,36.061,0,0,1-31.4-18.455l12.759.788.322,12.6,11.489-5.629L35.956,72ZM4.552,53.541v0a36.236,36.236,0,0,1-1.723-3.526A35.779,35.779,0,0,1,0,36.361l10.738,6.27L4.553,53.539ZM0,36.359v0c0-.119,0-.238,0-.357A35.969,35.969,0,0,1,36,0L29.125,9.642,17.766,5.1V17.212L5.215,17.4,10.8,28.517,0,36.358Z" fill="#f77a21"/>
        <path id="Combined_Shape-3" data-name="Combined Shape" d="M31.5,19.284a37.781,37.781,0,0,1-18.581-4.725A33.393,33.393,0,0,1,5.554,8.933,32.659,32.659,0,0,1,0,1.382l13.092.3.225,12.864L24.707,8.715l7.017,10.566,6.458-10.8L50.208,13.7,49.992,1.3,63.015,0l.02,0L62.99.086A35.962,35.962,0,0,1,50.138,13.973,35.239,35.239,0,0,1,31.5,19.284Z" transform="matrix(1, 0.017, -0.017, 1, 4.574, 52.163)" fill="#7e25ab"/>
      </g>
      <text id="G" transform="translate(12.6 4.5)" fill="#002162" stroke="#002162" stroke-miterlimit="10" stroke-width="1" font-size="43.2" font-family="SegoeUI, Segoe UI" letter-spacing="-0.013em"><tspan x="7.682" y="47">G</tspan></text>
    </g>
    <text id="Goalore-2" data-name="Goalore" transform="translate(85 77)" fill="#002162" stroke="#002162" stroke-miterlimit="10" stroke-width="1" font-size="32" font-family="SegoeUI, Segoe UI" letter-spacing="-0.013em"><tspan x="2.108" y="35">Goalore</tspan></text>
  </g>
</svg>
