<svg xmlns="http://www.w3.org/2000/svg" width="21.062" height="20.122" viewBox="0 0 21.062 20.122">
  <g id="Group_612" data-name="Group 612" transform="translate(13902.142 14394.5)">
    <path id="Path_22" data-name="Path 22" d="M-247.609,1900.2l19.983-.069a4.831,4.831,0,0,0-1.286-3.12,3.526,3.526,0,0,0-2.43-1.062s.094-4.33,0-5.359c-.062-3.021-1.186-6.483-6.615-6.489-6.337-.007-6.364,6.489-6.364,6.489v5.359a5.837,5.837,0,0,0-2.747,1.632A4.533,4.533,0,0,0-247.609,1900.2Z" transform="translate(-13654 -16278.103)" fill="none" stroke="#fff" stroke-width="1"/>
    <path id="Path_23" data-name="Path 23" d="M-274.114,1901.666a3.985,3.985,0,0,0,4.055,3.019,3.541,3.541,0,0,0,3.9-3.019Z" transform="translate(-13621.53 -16279.568)" fill="none" stroke="#fff" stroke-width="1"/>
  </g>
</svg>
