<svg xmlns="http://www.w3.org/2000/svg" width="22.06" height="19.377" viewBox="0 0 22.06 19.377">
  <g id="people-goal" transform="translate(-3344.21 -6275.907)">
    <g id="Ellipse_18" data-name="Ellipse 18" transform="translate(3357 6276.907)" fill="none" stroke="#292929" stroke-width="1">
      <circle cx="2.5" cy="2.5" r="2.5" stroke="none"/>
      <circle cx="2.5" cy="2.5" r="2" fill="none"/>
    </g>
    <g id="Ellipse_19" data-name="Ellipse 19" transform="translate(3348 6276.907)" fill="none" stroke="#292929" stroke-width="1">
      <circle cx="2.5" cy="2.5" r="2.5" stroke="none"/>
      <circle cx="2.5" cy="2.5" r="2" fill="none"/>
    </g>
    <g id="Ellipse_20" data-name="Ellipse 20" transform="translate(3351 6275.907)" fill="#fff" stroke="#292929" stroke-width="1">
      <circle cx="3.5" cy="3.5" r="3.5" stroke="none"/>
      <circle cx="3.5" cy="3.5" r="3" fill="none"/>
    </g>
    <path id="Path_25" data-name="Path 25" d="M4398.154,284.088s-.235-10.845,5.1-11.391a3.416,3.416,0,0,1,2.021.45c3.57,1.76,4.439,10.941,4.439,10.941" transform="translate(-1048.534 6011.148)" fill="none" stroke="#292929" stroke-width="1"/>
    <path id="Path_26" data-name="Path 26" d="M4415.326,266.081c-2.709,1.061-4,9.4-3.914,11.424" transform="translate(-1066.694 6017)" fill="none" stroke="#292929" stroke-width="1"/>
    <path id="Path_27" data-name="Path 27" d="M4411.408,266.081c2.709,1.061,4,9.4,3.914,11.424" transform="translate(-1049.559 6017)" fill="none" stroke="#292929" stroke-width="1"/>
  </g>
</svg>
